<svg x="0" y="0" width="700" height="350" viewBox="0 0 700 350" xmlns="http://www.w3.org/2000/svg" xmlns:xlink="http://www.w3.org/1999/xlink" xmlns:fi="http://pattern.flaticon.com/"><rect x="0px" y="0px" width="100%" height="100%" opacity="1" fill="#bababa"/><defs><g transform="matrix(0.13750794529914856 -0.020001159980893135 0.020001159980893135 0.13750794529914856 201.937255859375 226.85781860351562)" id="L1_0"><path d="M496.004,152c0-13.232-10.768-24-24-24c-2.752,0-5.36,0.56-7.824,1.416l-35.848-44.808     c2.288-3.672,3.672-7.968,3.672-12.608c0-13.232-10.768-24-24-24c-6.728,0-12.792,2.8-17.152,7.264L327.788,26.16     c0.064-0.72,0.216-1.416,0.216-2.16c0-13.232-10.768-24-24-24c-10.416,0-19.216,6.712-22.528,16h-90.944     C187.22,6.712,178.42,0,168.004,0c-13.232,0-24,10.768-24,24c0,0.992,0.176,1.944,0.296,2.912l-39.68,19.84     C100.3,42.592,94.46,40,88.004,40c-13.232,0-24,10.768-24,24c0,4.64,1.384,8.936,3.672,12.608l-35.848,44.808     C29.364,120.56,26.756,120,24.004,120c-13.232,0-24,10.768-24,24c0,10.416,6.712,19.216,16,22.528v50.952     c-9.288,3.304-16,12.104-16,22.52c0,13.232,10.768,24,24,24c8.888,0,16.568-4.912,20.72-12.104l43.672,7.936     C90.244,271.24,100.084,280,112.004,280c0.32,0,0.624-0.08,0.944-0.096l15.264,38.168c-4.992,4.4-8.208,10.768-8.208,17.928     c0,13.232,10.768,24,24,24c8.048,0,15.144-4.016,19.496-10.104l68.656,19.616c0.616,9.744,7.016,17.864,15.848,21.016v58.952     c-9.288,3.312-16,12.112-16,22.528c0,13.232,10.768,24,24,24s24-10.768,24-24c0-10.416-6.712-19.216-16-22.528v-58.952     c9.288-3.312,16-12.112,16-22.528c0-7.664-3.68-14.424-9.288-18.824l9.552-28.664l71.784,23.928     c0.192,10.216,6.8,18.816,15.952,22.08v82.952c-9.288,3.312-16,12.112-16,22.528c0,13.232,10.768,24,24,24s24-10.768,24-24     c0-10.416-6.712-19.216-16-22.528v-82.944c9.288-3.312,16-12.112,16-22.528c0-2.92-0.6-5.688-1.56-8.28l61.384-51.152     c3.576,2.128,7.712,3.432,12.176,3.432c13.232,0,24-10.768,24-24c0-10.416-6.712-19.216-16-22.528V174.52     C489.292,171.216,496.004,162.416,496.004,152z M408.004,64c4.408,0,8,3.584,8,8s-3.592,8-8,8c-4.408,0-8-3.584-8-8     S403.596,64,408.004,64z M396.628,93c3.4,1.856,7.24,3,11.376,3c2.752,0,5.352-0.56,7.816-1.416l35.848,44.816     c-2.28,3.672-3.664,7.96-3.664,12.6c0,1.288,0.184,2.528,0.384,3.768l-56.672,30.912l-41.272-34.392     c0.96-2.6,1.56-5.368,1.56-8.288c0-3.248-0.664-6.352-1.84-9.176L396.628,93z M296.004,224c-3.696,0-7.152,0.904-10.28,2.408     l-33.896-33.896l59.84-31.032c4.296,4.016,10.008,6.52,16.336,6.52c4.464,0,8.592-1.304,12.176-3.432l36.424,30.352     l-64.664,35.272C307.692,226.384,302.148,224,296.004,224z M304.004,248c0,4.416-3.592,8-8,8c-4.408,0-8-3.584-8-8     c0-4.416,3.592-8,8-8C300.412,240,304.004,243.584,304.004,248z M183.052,159.896l13.432,43.28l-68.144,35.336     c-2.856-2.664-6.352-4.6-10.24-5.632l-11.088-85.024l54.816-2.744C165.308,153.544,173.468,159.512,183.052,159.896z      M176.004,136c0-4.416,3.592-8,8-8s8,3.584,8,8s-3.592,8-8,8S176.004,140.416,176.004,136z M201.292,218.712l20.288,65.384     l-85.624-28.544c-0.016-0.96-0.16-1.888-0.288-2.816L201.292,218.712z M201.236,164.552l23.824,23.816l-14.152,7.336     L201.236,164.552z M205.604,146.28c1.496-3.128,2.4-6.584,2.4-10.28c0-3.408-0.736-6.64-2.016-9.576l37.984-35.456l61.232,45.92     c-0.712,2.272-1.2,4.624-1.2,7.112c0,1.12,0.184,2.184,0.328,3.264l-64.376,33.376L205.604,146.28z M320.004,144     c0-4.416,3.592-8,8-8c4.408,0,8,3.584,8,8s-3.592,8-8,8C323.596,152,320.004,148.416,320.004,144z M389.828,205.936l57.32,47.768     l-124.2-11.288L389.828,205.936z M304.004,16c4.408,0,8,3.584,8,8s-3.592,8-8,8c-4.408,0-8-3.584-8-8S299.596,16,304.004,16z      M293.012,45.208c3.304,1.72,7.008,2.792,10.992,2.792c6.728,0,12.792-2.8,17.16-7.272l63.056,29.104     c-0.064,0.728-0.216,1.424-0.216,2.168c0,3.256,0.664,6.352,1.84,9.184L339.38,123c-3.4-1.856-7.24-3-11.376-3     c-4.912,0-9.48,1.496-13.288,4.04l-58.864-44.152L293.012,45.208z M281.476,32c0.192,0.52,0.328,1.064,0.544,1.568l-39.176,36.56     L192.004,32H281.476z M168.004,16c4.408,0,8,3.584,8,8s-3.592,8-8,8s-8-3.584-8-8S163.596,16,168.004,16z M112.004,64     c0-0.992-0.176-1.944-0.296-2.904l39.68-19.84c4.32,4.152,10.16,6.744,16.616,6.744c4.912,0,9.48-1.496,13.288-4.04     l49.672,37.256l-35.968,33.568c-3.304-1.72-7.008-2.784-10.992-2.784c-10.832,0-19.904,7.256-22.88,17.128l-56.192,2.808     l-6.08-46.648C106.62,81.312,112.004,73.312,112.004,64z M88.004,56c4.408,0,8,3.584,8,8s-3.592,8-8,8s-8-3.584-8-8     S83.596,56,88.004,56z M80.18,86.584c0.928,0.32,1.84,0.664,2.808,0.872l5.904,45.288L46.18,134.88     c-0.504-1.224-1.152-2.368-1.848-3.488L80.18,86.584z M24.004,136c4.408,0,8,3.584,8,8s-3.592,8-8,8s-8-3.584-8-8     S19.596,136,24.004,136z M24.004,248c-4.408,0-8-3.584-8-8s3.592-8,8-8s8,3.584,8,8S28.412,248,24.004,248z M91.284,244.104     l-43.664-7.936c-1.416-8.712-7.496-15.8-15.616-18.696V166.52c7.144-2.552,12.68-8.352,14.88-15.656l44.096-2.208l11.152,85.52     C97.54,236.264,93.788,239.76,91.284,244.104z M112.004,264c-4.408,0-8-3.584-8-8c0-4.416,3.592-8,8-8s8,3.584,8,8     C120.004,260.416,116.412,264,112.004,264z M144.004,344c-4.408,0-8-3.584-8-8c0-4.416,3.592-8,8-8s8,3.584,8,8     C152.004,340.416,148.412,344,144.004,344z M236.516,354.104l-68.656-19.616C167.052,321.968,156.724,312,144.004,312     c-0.32,0-0.624,0.08-0.944,0.096l-15.264-38.168c1.112-0.984,2.12-2.056,3.04-3.224l96.592,32.2l14.264,45.952     C239.716,350.344,237.956,352.096,236.516,354.104z M256.004,480c-4.408,0-8-3.584-8-8c0-4.416,3.592-8,8-8c4.408,0,8,3.584,8,8     C264.004,476.416,260.412,480,256.004,480z M256.004,376c-4.408,0-8-3.584-8-8c0-4.416,3.592-8,8-8c4.408,0,8,3.584,8,8     C264.004,372.416,260.412,376,256.004,376z M256.276,341.888l-10.168-32.752l18.976,6.328L256.276,341.888z M270.148,300.28     l-29.872-9.96l-24.544-79.088l21.2-10.992l37.48,37.48c-1.504,3.128-2.408,6.584-2.408,10.28c0,7.664,3.68,14.432,9.296,18.824     L270.148,300.28z M376.004,480c-4.408,0-8-3.584-8-8c0-4.416,3.592-8,8-8c4.408,0,8,3.584,8,8     C384.004,476.416,380.412,480,376.004,480z M376.004,352c-4.408,0-8-3.584-8-8c0-4.416,3.592-8,8-8c4.408,0,8,3.584,8,8     C384.004,348.416,380.412,352,376.004,352z M388.18,323.424c-3.584-2.12-7.712-3.424-12.176-3.424     c-7.664,0-14.432,3.68-18.824,9.296l-71.856-23.952l11.128-33.392c9.456-0.176,17.544-5.84,21.288-13.944l131.088,11.912     c0.208,0.8,0.448,1.584,0.736,2.352L388.18,323.424z M404.94,197.688l51.128-27.888c2.296,2.064,4.976,3.664,7.944,4.72v66.952     c-1.472,0.528-2.864,1.176-4.184,1.96L404.94,197.688z M472.004,272c-4.408,0-8-3.584-8-8c0-4.416,3.592-8,8-8     c4.408,0,8,3.584,8,8C480.004,268.416,476.412,272,472.004,272z M472.004,160c-4.408,0-8-3.584-8-8s3.592-8,8-8     c4.408,0,8,3.584,8,8S476.412,160,472.004,160z"/><rect x="16px" y="0px" width="16px" height="16px"/><rect x="16px" y="32px" width="16px" height="16px"/><rect x="32px" y="16px" width="16px" height="16px"/><rect x="0px" y="16px" width="16px" height="16px"/><rect x="416px" y="368px" width="16px" height="16px"/><rect x="416px" y="400px" width="16px" height="16px"/><rect x="432px" y="384px" width="16px" height="16px"/><rect x="400px" y="384px" width="16px" height="16px"/><rect x="464px" y="32px" width="16px" height="16px"/><rect x="464px" y="64px" width="16px" height="16px"/><rect x="480px" y="48px" width="16px" height="16px"/><rect x="448px" y="48px" width="16px" height="16px"/><rect x="96px" y="384px" width="16px" height="16px"/><rect x="96px" y="416px" width="16px" height="16px"/><rect x="112px" y="400px" width="16px" height="16px"/><rect x="80px" y="400px" width="16px" height="16px"/><rect x="48px" y="296px" width="16px" height="16px"/><rect x="48px" y="328px" width="16px" height="16px"/><rect x="64px" y="312px" width="16px" height="16px"/><rect x="32px" y="312px" width="16px" height="16px"/></g><g transform="matrix(1.3642891645431519 -0.18527384102344513 0.18527384102344513 1.3642891645431519 -23.892026901245117 32.355133056640625)" id="L1_2"><path d="M 30.816406 29.003906 C 27.632812 29.003906 25.058594 31.585938 25.058594 34.765625 C 25.058594 37.941406 27.632812 40.523438 30.816406 40.523438 C 33.992188 40.523438 36.570312 37.941406 36.570312 34.765625 C 36.570312 31.585938 33.992188 29.003906 30.816406 29.003906 Z M 30.816406 38.042969 C 29.003906 38.042969 27.53125 36.578125 27.53125 34.765625 C 27.53125 32.953125 29.003906 31.484375 30.816406 31.484375 C 32.628906 31.484375 34.09375 32.953125 34.09375 34.765625 C 34.09375 36.578125 32.628906 38.042969 30.816406 38.042969 Z M 30.816406 38.042969 " fill="#000000" fill-opacity="1" stroke="none"/><path d="M 59.574219 40.363281 C 59.554688 38.097656 57.707031 36.273438 55.441406 36.292969 C 54.882812 36.300781 54.332031 36.421875 53.816406 36.644531 C 53.246094 36.042969 52.652344 35.441406 52.03125 34.835938 C 53.566406 33.375 55.011719 31.820312 56.355469 30.179688 C 60.949219 24.523438 62.398438 19.671875 60.453125 16.566406 C 57.976562 12.605469 50.871094 12.390625 41.695312 15.328125 C 39.417969 5.953125 35.503906 0 30.886719 0 C 29.121094 0 26.519531 0.902344 24.003906 5.015625 L 23.457031 5.015625 C 21.203125 4.984375 19.351562 6.789062 19.324219 9.046875 C 19.304688 10.308594 19.871094 11.507812 20.859375 12.292969 C 20.550781 13.285156 20.269531 14.320312 20.003906 15.398438 C 10.792969 12.320312 3.652344 12.519531 1.171875 16.492188 C -0.769531 19.636719 0.675781 24.488281 5.273438 30.109375 C 6.621094 31.746094 8.0625 33.300781 9.59375 34.765625 C 8.0625 36.226562 6.621094 37.78125 5.273438 39.417969 C 0.691406 45.101562 -0.757812 49.980469 1.171875 53.121094 C 2.117188 54.648438 4.234375 56.34375 8.9375 56.34375 L 10.113281 56.34375 C 11.019531 58.410156 13.429688 59.351562 15.492188 58.449219 C 16.917969 57.828125 17.867188 56.445312 17.9375 54.894531 C 18.59375 54.707031 19.25 54.511719 19.921875 54.289062 C 22.195312 63.683594 26.105469 69.664062 30.800781 69.664062 C 35.496094 69.664062 39.464844 63.671875 41.679688 54.3125 C 45.183594 55.546875 48.855469 56.238281 52.566406 56.355469 C 56.277344 56.355469 59.09375 55.304688 60.4375 53.121094 C 62 50.648438 61.382812 47.058594 58.742188 42.8125 C 59.28125 42.105469 59.570312 41.246094 59.574219 40.363281 Z M 57.09375 40.363281 C 57.09375 41.261719 56.367188 41.996094 55.460938 41.996094 C 54.558594 41.996094 53.828125 41.261719 53.828125 40.363281 C 53.828125 39.457031 54.558594 38.722656 55.460938 38.722656 C 56.367188 38.722656 57.09375 39.457031 57.09375 40.363281 Z M 58.335938 17.789062 C 59.644531 19.910156 58.1875 23.980469 54.421875 28.585938 C 53.109375 30.175781 51.707031 31.683594 50.214844 33.105469 C 48.085938 31.210938 45.855469 29.429688 43.542969 27.769531 C 43.332031 24.441406 42.921875 21.136719 42.304688 17.863281 C 50.558594 15.054688 56.703125 15.152344 58.335938 17.789062 Z M 36.335938 43.738281 C 34.503906 44.867188 32.625 45.917969 30.816406 46.898438 C 29.007812 45.945312 27.097656 44.90625 25.289062 43.738281 C 23.644531 42.710938 22.039062 41.648438 20.488281 40.554688 C 20.378906 38.714844 20.3125 36.84375 20.3125 34.8125 C 20.3125 32.78125 20.3125 30.949219 20.5 29.070312 C 22.035156 27.980469 23.632812 26.917969 25.289062 25.886719 C 27.160156 24.722656 29.007812 23.683594 30.816406 22.730469 C 32.625 23.683594 34.527344 24.722656 36.335938 25.886719 C 37.984375 26.902344 39.589844 27.964844 41.136719 29.070312 C 41.25 30.914062 41.3125 32.78125 41.3125 34.8125 C 41.3125 36.84375 41.3125 38.714844 41.136719 40.554688 C 39.550781 41.648438 37.992188 42.714844 36.335938 43.738281 Z M 40.878906 43.738281 C 40.632812 46.328125 40.273438 48.691406 39.824219 50.980469 C 37.808594 50.226562 35.691406 49.3125 33.496094 48.242188 C 34.886719 47.476562 36.261719 46.683594 37.632812 45.84375 C 38.734375 45.101562 39.816406 44.457031 40.878906 43.738281 Z M 28.105469 48.257812 C 25.960938 49.296875 23.84375 50.203125 21.785156 50.980469 C 21.316406 48.589844 20.964844 46.167969 20.738281 43.738281 C 21.800781 44.457031 22.878906 45.164062 23.976562 45.84375 C 25.367188 46.695312 26.738281 47.5 28.105469 48.257812 Z M 17.914062 38.667969 C 16.25 37.425781 14.683594 36.113281 13.234375 34.8125 C 14.691406 33.574219 16.265625 32.226562 17.921875 30.949219 C 17.921875 32.1875 17.839844 33.515625 17.839844 34.8125 C 17.839844 36.113281 17.867188 37.402344 17.914062 38.667969 Z M 20.746094 25.875 C 20.996094 23.398438 21.355469 20.925781 21.800781 18.632812 C 23.816406 19.390625 25.9375 20.300781 28.128906 21.367188 C 26.761719 22.125 25.390625 22.917969 23.992188 23.84375 C 22.878906 24.523438 21.800781 25.230469 20.746094 25.949219 Z M 33.496094 21.367188 C 35.691406 20.300781 37.808594 19.390625 39.824219 18.632812 C 40.300781 21.027344 40.652344 23.445312 40.878906 25.875 C 39.816406 25.15625 38.734375 24.453125 37.632812 23.773438 C 36.25 22.917969 34.863281 22.125 33.496094 21.367188 Z M 43.710938 30.964844 C 45.375 32.203125 46.933594 33.515625 48.390625 34.8125 C 46.945312 36.050781 45.375 37.402344 43.710938 38.667969 C 43.761719 37.402344 43.789062 36.113281 43.789062 34.8125 C 43.789062 33.511719 43.761719 32.226562 43.710938 30.964844 Z M 23.457031 7.414062 C 24.363281 7.414062 25.097656 8.148438 25.097656 9.046875 C 25.097656 9.953125 24.363281 10.6875 23.457031 10.6875 C 22.558594 10.6875 21.824219 9.953125 21.824219 9.046875 C 21.824219 8.148438 22.558594 7.414062 23.457031 7.414062 Z M 23.1875 13.125 L 23.457031 13.125 C 25.722656 13.125 27.558594 11.292969 27.558594 9.027344 C 27.566406 7.878906 27.078125 6.777344 26.234375 6.007812 C 27.707031 3.679688 29.3125 2.414062 30.847656 2.414062 C 33.945312 2.414062 37.265625 7.589844 39.320312 16.109375 C 36.429688 17.179688 33.601562 18.417969 30.847656 19.820312 C 28.105469 18.417969 25.277344 17.179688 22.382812 16.109375 C 22.601562 15.09375 22.859375 14.101562 23.152344 13.136719 Z M 7.203125 28.597656 C 3.492188 23.957031 1.980469 19.933594 3.292969 17.804688 C 4.925781 15.167969 11.089844 15.070312 19.386719 17.804688 C 18.734375 21.074219 18.289062 24.378906 18.050781 27.707031 C 15.722656 29.390625 13.488281 31.1875 11.355469 33.105469 C 9.882812 31.6875 8.496094 30.179688 7.203125 28.597656 Z M 13.867188 56.242188 C 12.960938 56.242188 12.226562 55.511719 12.226562 54.609375 C 12.226562 53.707031 12.960938 52.976562 13.867188 52.976562 C 14.765625 52.976562 15.5 53.707031 15.5 54.609375 C 15.5 55.511719 14.765625 56.242188 13.867188 56.242188 Z M 17.34375 52.441406 C 16.144531 50.523438 13.617188 49.933594 11.699219 51.136719 C 10.726562 51.738281 10.054688 52.71875 9.84375 53.84375 C 6.523438 54.003906 4.210938 53.296875 3.292969 51.835938 C 1.980469 49.722656 3.441406 45.644531 7.203125 41.042969 C 8.515625 39.453125 9.921875 37.941406 11.410156 36.523438 C 13.546875 38.429688 15.769531 40.222656 18.089844 41.894531 C 18.292969 45.222656 18.707031 48.527344 19.324219 51.800781 C 18.632812 52.058594 17.953125 52.265625 17.265625 52.464844 Z M 30.816406 67.160156 C 27.707031 67.160156 24.386719 61.976562 22.332031 53.417969 C 25.222656 52.34375 28.046875 51.105469 30.785156 49.707031 C 33.542969 51.136719 36.378906 52.398438 39.28125 53.496094 C 37.226562 61.984375 33.910156 67.160156 30.816406 67.160156 Z M 58.335938 51.824219 C 56.703125 54.460938 50.558594 54.5625 42.238281 51.824219 C 42.855469 48.550781 43.269531 45.246094 43.480469 41.921875 C 45.796875 40.246094 48.023438 38.453125 50.152344 36.546875 C 50.761719 37.128906 51.339844 37.714844 51.894531 38.292969 C 51.507812 38.921875 51.296875 39.652344 51.292969 40.394531 C 51.292969 42.664062 53.128906 44.507812 55.398438 44.507812 C 55.820312 44.496094 56.238281 44.425781 56.636719 44.285156 C 58.742188 47.578125 59.363281 50.21875 58.335938 51.824219 Z M 58.335938 51.824219 " fill="#000000" fill-opacity="1" stroke="none"/></g><path d="M 51.992188 21.707031 C 51.007812 22.605469 50.546875 23.9375 50.75 25.257812 L 41.898438 31.179688 C 41.785156 31.054688 41.691406 30.929688 41.566406 30.804688 C 40.566406 29.808594 39.347656 29.054688 38.015625 28.59375 L 41.207031 8.613281 C 43.582031 8.507812 45.425781 6.5 45.324219 4.121094 C 45.222656 1.746094 43.210938 -0.0976562 40.832031 0.00390625 C 38.457031 0.105469 36.613281 2.117188 36.714844 4.496094 C 36.78125 5.929688 37.554688 7.246094 38.785156 7.988281 L 35.570312 28.085938 C 34 27.988281 32.429688 28.277344 31.003906 28.941406 L 27.46875 22.738281 C 29.125 21.078125 29.125 18.390625 27.46875 16.734375 C 25.8125 15.074219 23.121094 15.074219 21.460938 16.726562 C 19.804688 18.386719 19.804688 21.074219 21.460938 22.730469 C 22.253906 23.53125 23.335938 23.976562 24.460938 23.976562 C 24.726562 23.976562 24.996094 23.953125 25.253906 23.90625 L 28.890625 30.355469 C 28.691406 30.515625 28.507812 30.691406 28.324219 30.878906 C 27.023438 32.175781 26.144531 33.828125 25.777344 35.621094 L 8.308594 35.695312 C 8.117188 35.03125 7.753906 34.425781 7.269531 33.933594 C 5.613281 32.269531 2.929688 32.257812 1.265625 33.914062 C -0.398438 35.5625 -0.410156 38.253906 1.246094 39.917969 C 2.042969 40.722656 3.128906 41.171875 4.261719 41.167969 C 6.125 41.183594 7.765625 39.960938 8.296875 38.175781 L 25.589844 38.101562 C 25.808594 41.851562 28.253906 45.101562 31.796875 46.347656 L 29.214844 57.703125 C 26.917969 57.78125 25.117188 59.703125 25.195312 62 C 25.273438 64.292969 27.195312 66.089844 29.492188 66.019531 C 31.78125 65.941406 33.582031 64.019531 33.503906 61.722656 C 33.472656 60.679688 33.046875 59.6875 32.316406 58.945312 C 32.128906 58.738281 31.925781 58.550781 31.695312 58.390625 L 34.304688 46.832031 L 35.046875 46.832031 C 37.515625 46.816406 39.878906 45.835938 41.625 44.089844 C 41.800781 43.914062 41.949219 43.738281 42.113281 43.554688 L 48.140625 47.363281 C 47.441406 49.589844 48.675781 51.972656 50.910156 52.671875 C 53.140625 53.378906 55.511719 52.136719 56.21875 49.90625 C 56.695312 48.398438 56.285156 46.753906 55.167969 45.636719 C 53.625 44.175781 51.25 44.042969 49.558594 45.328125 L 43.449219 41.480469 C 44.6875 38.863281 44.65625 35.824219 43.363281 33.238281 L 51.867188 27.550781 L 52.003906 27.714844 C 53.746094 29.28125 56.429688 29.140625 58 27.398438 C 59.453125 25.78125 59.453125 23.332031 58 21.714844 C 56.324219 20.109375 53.679688 20.101562 51.992188 21.707031 Z M 39.769531 3.148438 C 40.449219 2.457031 41.566406 2.453125 42.257812 3.132812 C 42.949219 3.820312 42.960938 4.933594 42.273438 5.625 C 41.585938 6.320312 40.472656 6.324219 39.78125 5.644531 C 39.445312 5.3125 39.257812 4.859375 39.257812 4.386719 C 39.257812 3.925781 39.4375 3.476562 39.769531 3.148438 Z M 23.242188 20.921875 C 22.550781 20.242188 22.546875 19.121094 23.234375 18.429688 C 23.917969 17.738281 25.035156 17.734375 25.726562 18.421875 C 26.414062 19.105469 26.421875 20.222656 25.734375 20.914062 C 25.734375 20.917969 25.730469 20.921875 25.726562 20.921875 C 25.042969 21.609375 23.933594 21.613281 23.253906 20.933594 C 23.25 20.925781 23.25 20.925781 23.242188 20.921875 Z M 30.582031 63.128906 C 29.890625 63.8125 28.769531 63.808594 28.089844 63.117188 C 27.402344 62.425781 27.410156 61.3125 28.097656 60.628906 C 28.789062 59.941406 29.90625 59.945312 30.589844 60.636719 C 30.921875 60.96875 31.101562 61.421875 31.101562 61.886719 C 31.101562 62.359375 30.910156 62.8125 30.582031 63.144531 Z M 52.164062 46.867188 C 53.140625 46.871094 53.925781 47.660156 53.925781 48.632812 C 53.925781 49.605469 53.132812 50.394531 52.160156 50.394531 C 51.1875 50.394531 50.398438 49.601562 50.398438 48.628906 C 50.398438 48.15625 50.589844 47.707031 50.925781 47.378906 C 51.253906 47.054688 51.703125 46.875 52.164062 46.882812 Z M 4.300781 38.625 C 3.328125 38.632812 2.535156 37.84375 2.53125 36.871094 C 2.523438 35.898438 3.308594 35.105469 4.28125 35.101562 C 5.253906 35.097656 6.046875 35.878906 6.050781 36.851562 C 6.058594 37.320312 5.871094 37.773438 5.542969 38.101562 C 5.214844 38.4375 4.769531 38.625 4.300781 38.625 Z M 30.109375 42.351562 C 27.417969 39.652344 27.417969 35.28125 30.117188 32.589844 C 32.8125 29.894531 37.183594 29.898438 39.878906 32.601562 C 42.566406 35.289062 42.566406 39.65625 39.878906 42.351562 C 37.167969 45.042969 32.792969 45.03125 30.097656 42.328125 C 30.097656 42.328125 30.097656 42.328125 30.09375 42.328125 Z M 56.238281 25.953125 C 55.546875 26.632812 54.433594 26.632812 53.746094 25.945312 C 53.0625 25.253906 53.066406 24.132812 53.757812 23.449219 C 54.449219 22.765625 55.5625 22.765625 56.25 23.457031 C 56.578125 23.792969 56.765625 24.242188 56.757812 24.710938 C 56.757812 25.175781 56.570312 25.621094 56.238281 25.953125 Z M 56.238281 25.953125 " transform="matrix(0.9088073968887329 0 0 0.9088073968887329 69 178)" fill="#000000" fill-opacity="1" stroke="none" id="L1_4"/><g transform="matrix(1.5013219118118286 -0.270730197429657 0.270730197429657 1.5013219118118286 99.265869140625 275.9068908691406)" id="L1_6"><path d="M 24.328125 53.699219 C 22.257812 53.699219 20.582031 55.375 20.582031 57.445312 C 20.582031 59.511719 22.257812 61.191406 24.328125 61.191406 C 26.398438 61.191406 28.074219 59.511719 28.074219 57.445312 C 28.074219 55.375 26.398438 53.699219 24.328125 53.699219 Z M 24.328125 58.617188 C 23.636719 58.617188 23.082031 58.058594 23.082031 57.367188 C 23.082031 56.679688 23.636719 56.121094 24.328125 56.121094 C 25.015625 56.121094 25.574219 56.679688 25.574219 57.367188 C 25.570312 58.054688 25.007812 58.605469 24.328125 58.605469 Z M 24.328125 58.617188 " fill="#000000" fill-opacity="1" stroke="none"/><path d="M 36.65625 40.273438 C 34.582031 40.273438 32.910156 41.949219 32.910156 44.019531 C 32.910156 46.089844 34.582031 47.765625 36.65625 47.765625 C 38.722656 47.765625 40.398438 46.089844 40.398438 44.019531 C 40.398438 41.949219 38.722656 40.273438 36.65625 40.273438 Z M 36.65625 45.195312 C 35.964844 45.195312 35.402344 44.632812 35.402344 43.941406 C 35.402344 43.253906 35.964844 42.695312 36.65625 42.695312 C 37.339844 42.695312 37.902344 43.253906 37.902344 43.941406 C 37.902344 44.632812 37.339844 45.195312 36.65625 45.195312 Z M 36.65625 45.195312 " fill="#000000" fill-opacity="1" stroke="none"/><path d="M 10.429688 40.273438 C 8.359375 40.273438 6.683594 41.949219 6.683594 44.019531 C 6.683594 46.089844 8.359375 47.765625 10.429688 47.765625 C 12.5 47.765625 14.175781 46.089844 14.175781 44.019531 C 14.175781 41.949219 12.5 40.273438 10.429688 40.273438 Z M 10.429688 45.195312 C 9.738281 45.195312 9.179688 44.632812 9.179688 43.941406 C 9.179688 43.253906 9.738281 42.695312 10.429688 42.695312 C 11.117188 42.695312 11.675781 43.253906 11.675781 43.941406 C 11.675781 44.632812 11.117188 45.195312 10.429688 45.195312 Z M 10.429688 45.195312 " fill="#000000" fill-opacity="1" stroke="none"/><path d="M 45.144531 36.140625 C 43.140625 29.40625 38.164062 23.953125 31.632812 21.351562 L 31.632812 1.246094 C 31.632812 0.5625 31.070312 0 30.386719 0 L 16 0 C 15.308594 0 14.746094 0.5625 14.746094 1.246094 L 14.746094 21.351562 C 8.214844 23.953125 3.230469 29.402344 1.226562 36.140625 C 1.226562 36.140625 1.226562 36.140625 1.226562 36.226562 C -2.332031 48.371094 4.628906 61.101562 16.773438 64.660156 C 28.921875 68.21875 41.648438 61.257812 45.207031 49.109375 C 46.4375 44.902344 46.4375 40.433594 45.207031 36.226562 C 45.1875 36.199219 45.167969 36.167969 45.144531 36.140625 Z M 16.425781 23.402344 C 16.921875 23.226562 17.253906 22.757812 17.261719 22.226562 L 17.261719 21.328125 L 19.753906 21.328125 C 20.445312 21.328125 21.007812 20.765625 21.007812 20.082031 C 21.007812 19.390625 20.445312 18.832031 19.753906 18.832031 L 17.261719 18.832031 L 17.261719 16.660156 L 19.753906 16.660156 C 20.445312 16.660156 21.007812 16.097656 21.007812 15.410156 C 21.007812 14.71875 20.445312 14.160156 19.753906 14.160156 L 17.261719 14.160156 L 17.261719 11.988281 L 19.753906 11.988281 C 20.445312 11.988281 21.007812 11.429688 21.007812 10.742188 C 21.007812 10.050781 20.445312 9.488281 19.753906 9.488281 L 17.261719 9.488281 L 17.261719 7.328125 L 19.753906 7.328125 C 20.445312 7.328125 21.007812 6.773438 21.007812 6.082031 C 21.007812 5.390625 20.445312 4.835938 19.753906 4.835938 L 17.261719 4.835938 L 17.261719 2.5 L 29.148438 2.5 L 29.148438 22.21875 C 29.148438 22.746094 29.484375 23.214844 29.984375 23.386719 C 35.644531 25.394531 40.136719 29.78125 42.273438 35.390625 L 4.121094 35.390625 C 6.261719 29.789062 10.753906 25.402344 16.410156 23.402344 Z M 23.191406 63.0625 C 11.921875 63.070312 2.777344 53.945312 2.769531 42.675781 C 2.769531 41.0625 2.957031 39.457031 3.332031 37.890625 L 43.046875 37.890625 C 45.679688 48.84375 38.933594 59.859375 27.976562 62.496094 C 26.410156 62.871094 24.800781 63.066406 23.191406 63.0625 Z M 23.191406 63.0625 " fill="#000000" fill-opacity="1" stroke="none"/></g><g transform="matrix(1.0935362577438354 0.37226760387420654 -0.37226760387420654 1.0935362577438354 161.82418823242188 102.35596466064453)" id="L1_10"><path d="M 41.53125 65.941406 C 45 65.941406 47.445312 64.277344 48.367188 61.363281 C 51.730469 60.945312 54.261719 58.085938 54.265625 54.691406 L 54.265625 28.996094 L 55.503906 28.996094 C 56.191406 28.996094 56.746094 28.4375 56.746094 27.757812 C 56.746094 27.070312 56.191406 26.515625 55.503906 26.515625 L 48.785156 26.515625 L 48.785156 11.632812 C 48.785156 6.289062 45.0625 4.378906 41.53125 4.378906 L 35.503906 4.378906 L 35.503906 1.238281 C 35.503906 0.554688 34.949219 0 34.261719 0 L 15.015625 0 C 14.332031 0 13.777344 0.554688 13.777344 1.238281 L 13.777344 4.351562 L 7.75 4.351562 C 4.238281 4.351562 0.496094 6.265625 0.496094 11.609375 L 0.496094 58.730469 C 0.496094 64.078125 4.214844 65.988281 7.75 65.988281 Z M 47.542969 58.945312 C 45.210938 58.96875 43.289062 57.113281 43.238281 54.777344 L 43.238281 42.871094 L 51.738281 42.871094 L 51.738281 54.730469 C 51.71875 57.039062 49.855469 58.910156 47.542969 58.945312 Z M 51.785156 40.34375 L 43.238281 40.34375 L 43.238281 28.996094 L 51.738281 28.996094 Z M 16.257812 2.480469 L 33.023438 2.480469 L 33.023438 10.128906 L 16.257812 10.128906 Z M 2.976562 58.683594 L 2.976562 11.5625 C 2.976562 7.617188 5.566406 6.785156 7.75 6.785156 L 13.777344 6.785156 L 13.777344 11.371094 C 13.777344 12.058594 14.332031 12.609375 15.015625 12.609375 L 34.261719 12.609375 C 34.949219 12.609375 35.503906 12.058594 35.503906 11.371094 L 35.503906 6.832031 L 41.53125 6.832031 C 43.710938 6.832031 46.304688 7.664062 46.304688 11.609375 L 46.304688 26.492188 L 39.359375 26.492188 C 38.679688 26.492188 38.117188 27.046875 38.117188 27.730469 C 38.117188 28.414062 38.679688 28.972656 39.359375 28.972656 L 40.757812 28.972656 L 40.757812 54.691406 C 40.765625 57.71875 42.796875 60.375 45.71875 61.179688 C 44.925781 62.726562 43.265625 63.628906 41.53125 63.460938 L 7.75 63.460938 C 5.566406 63.460938 2.976562 62.628906 2.976562 58.683594 Z M 2.976562 58.683594 " fill="#000000" fill-opacity="1" stroke="none"/><path d="M 14.144531 24.179688 L 35.132812 24.179688 C 35.816406 24.179688 36.371094 23.628906 36.371094 22.941406 C 36.371094 22.261719 35.816406 21.699219 35.132812 21.699219 L 14.144531 21.699219 C 13.464844 21.699219 12.90625 22.261719 12.90625 22.941406 C 12.90625 23.628906 13.464844 24.179688 14.144531 24.179688 Z M 14.144531 24.179688 " fill="#000000" fill-opacity="1" stroke="none"/><path d="M 14.144531 31.117188 L 35.132812 31.117188 C 35.816406 31.117188 36.371094 30.558594 36.371094 29.875 C 36.371094 29.191406 35.816406 28.636719 35.132812 28.636719 L 14.144531 28.636719 C 13.464844 28.636719 12.90625 29.191406 12.90625 29.875 C 12.90625 30.558594 13.464844 31.117188 14.144531 31.117188 Z M 14.144531 31.117188 " fill="#000000" fill-opacity="1" stroke="none"/><path d="M 14.144531 38.039062 L 35.132812 38.039062 C 35.816406 38.039062 36.371094 37.476562 36.371094 36.796875 C 36.371094 36.113281 35.816406 35.558594 35.132812 35.558594 L 14.144531 35.558594 C 13.464844 35.558594 12.90625 36.113281 12.90625 36.796875 C 12.90625 37.476562 13.464844 38.039062 14.144531 38.039062 Z M 14.144531 38.039062 " fill="#000000" fill-opacity="1" stroke="none"/><path d="M 14.144531 44.953125 L 35.132812 44.953125 C 35.816406 44.953125 36.371094 44.398438 36.371094 43.714844 C 36.371094 43.03125 35.816406 42.472656 35.132812 42.472656 L 14.144531 42.472656 C 13.464844 42.472656 12.90625 43.03125 12.90625 43.714844 C 12.90625 44.398438 13.464844 44.953125 14.144531 44.953125 Z M 14.144531 44.953125 " fill="#000000" fill-opacity="1" stroke="none"/><path d="M 14.144531 51.890625 L 35.132812 51.890625 C 35.816406 51.890625 36.371094 51.335938 36.371094 50.648438 C 36.371094 49.964844 35.816406 49.410156 35.132812 49.410156 L 14.144531 49.410156 C 13.464844 49.410156 12.90625 49.964844 12.90625 50.648438 C 12.90625 51.335938 13.464844 51.890625 14.144531 51.890625 Z M 14.144531 51.890625 " fill="#000000" fill-opacity="1" stroke="none"/></g><g transform="matrix(1.1050509214401245 0.4143940508365631 -0.4143940508365631 1.1050509214401245 335.5008850097656 224.3415069580078)" id="L1_11"><path d="M 1.339844 2.46875 L 3.984375 2.46875 L 3.984375 53.355469 C 3.984375 59.902344 9.289062 65.210938 15.832031 65.210938 C 22.375 65.210938 27.683594 59.902344 27.683594 53.355469 L 27.683594 2.46875 L 30.742188 2.46875 C 31.421875 2.46875 31.980469 1.917969 31.980469 1.234375 C 31.980469 0.550781 31.421875 0 30.742188 0 L 1.339844 0 C 0.65625 0 0.105469 0.550781 0.105469 1.234375 C 0.105469 1.917969 0.65625 2.46875 1.339844 2.46875 Z M 15.84375 62.738281 C 10.664062 62.734375 6.472656 58.539062 6.464844 53.355469 L 6.464844 29.242188 L 25.226562 29.242188 L 25.226562 53.355469 C 25.214844 58.539062 21.019531 62.734375 15.84375 62.738281 Z M 25.226562 2.46875 L 25.226562 26.785156 L 6.464844 26.785156 L 6.464844 2.46875 Z M 25.226562 2.46875 " fill="#000000" fill-opacity="1" stroke="none"/><path d="M 14.742188 36.316406 C 14.742188 34.492188 13.269531 33.019531 11.453125 33.019531 C 9.628906 33.019531 8.15625 34.492188 8.15625 36.316406 C 8.15625 38.136719 9.628906 39.605469 11.453125 39.605469 C 13.269531 39.605469 14.742188 38.136719 14.742188 36.316406 Z M 11.453125 37.140625 C 10.996094 37.140625 10.625 36.769531 10.625 36.316406 C 10.625 35.859375 10.996094 35.488281 11.453125 35.488281 C 11.910156 35.488281 12.277344 35.859375 12.277344 36.316406 C 12.277344 36.769531 11.910156 37.140625 11.453125 37.140625 Z M 11.453125 37.140625 " fill="#000000" fill-opacity="1" stroke="none"/><path d="M 15.679688 52.308594 C 13.863281 52.308594 12.390625 53.785156 12.390625 55.605469 C 12.390625 57.429688 13.863281 58.902344 15.679688 58.902344 C 17.503906 58.902344 18.976562 57.429688 18.976562 55.605469 C 18.976562 53.785156 17.503906 52.308594 15.679688 52.308594 Z M 15.679688 56.433594 C 15.222656 56.433594 14.855469 56.0625 14.855469 55.605469 C 14.855469 55.148438 15.222656 54.78125 15.679688 54.78125 C 16.140625 54.78125 16.511719 55.148438 16.511719 55.605469 C 16.511719 56.0625 16.140625 56.433594 15.679688 56.433594 Z M 15.679688 56.433594 " fill="#000000" fill-opacity="1" stroke="none"/><path d="M 19.757812 41.3125 C 17.933594 41.332031 16.480469 42.828125 16.5 44.644531 C 16.515625 46.464844 18.011719 47.921875 19.828125 47.902344 C 21.636719 47.882812 23.085938 46.414062 23.085938 44.609375 C 23.085938 42.789062 21.617188 41.3125 19.796875 41.3125 C 19.78125 41.3125 19.769531 41.3125 19.757812 41.3125 Z M 19.757812 45.4375 C 19.300781 45.4375 18.929688 45.066406 18.929688 44.609375 C 18.929688 44.152344 19.300781 43.785156 19.757812 43.785156 C 20.214844 43.785156 20.582031 44.152344 20.582031 44.609375 C 20.582031 45.066406 20.214844 45.4375 19.757812 45.4375 Z M 19.757812 45.4375 " fill="#000000" fill-opacity="1" stroke="none"/></g><path d="M416.2,771.051c-3.3-32.101-11.699-65.5-22.1-98.9c33.6,10.4,67,18.9,99.2,22.1c64.8,6.601,115.1-9,153.8-47.699   c38.7-38.7,54.3-89,47.7-153.801c-3.3-32.2-11.8-65.7-22.101-99.2c33.5,10.3,66.9,18.8,98.9,22.1c64.8,6.6,115.1-9,153.8-47.7   l29.8-29.8c9.4-9.4,9.4-24.7,0-34.1l-12.6-12.6c-9.4-9.4-24.7-9.4-34.1,0l-12.2,12.2L658.7,65.95l12.2-12.2   c9.4-9.4,9.4-24.7,0-34.1l-12.6-12.6c-9.4-9.4-24.7-9.4-34.101,0l-29.8,29.8c-38.7,38.7-54.3,89-47.7,153.8   c3.301,32.1,11.7,65.5,22.101,98.9c-33.601-10.4-67-18.9-99.2-22.1c-64.8-6.6-115.1,9-153.8,47.7s-54.3,89-47.7,153.8   c3.3,32.201,11.8,65.601,22.1,99.201c-33.5-10.3-66.9-18.8-98.9-22.1c-64.8-6.601-115.1,9-153.8,47.699l-30.4,30.4   c-9.4,9.4-9.4,24.7,0,34.1l12.6,12.601c9.4,9.399,24.7,9.399,34.1,0l12.8-12.8l237.7,237.699l-12.8,12.801   c-9.4,9.399-9.4,24.699,0,34.1l12.6,12.6c9.4,9.4,24.7,9.4,34.1,0l30.4-30.399C407.2,886.051,422.801,835.851,416.2,771.051z    M624.001,106.35l232,232c-11.5,6.2-24.5,10.1-39.301,11.8l-204.5-204.5C613.9,130.85,617.801,117.85,624.001,106.35z    M620.301,228.65L733.7,342.05c-28.1-6.7-57.699-16.4-87-26.4C636.7,286.35,627.001,256.75,620.301,228.65z M594.801,367.55   c10.399,30.5,20.5,61.2,27.2,90.3l-117.5-117.5C533.601,347.15,564.301,357.15,594.801,367.55z M422.4,333.25l206.7,206.7   c-1.9,14.5-6,27.3-12.4,38.7l-233-233C395.101,339.25,407.9,335.15,422.4,333.25z M346.2,383.05l233,233   c-10.8,6.1-22.899,10.1-36.6,12.1l-208.5-208.5C336.101,406.05,340.2,393.95,346.2,383.05z M340.301,500.75l121.3,121.4   c-30-6.8-61.8-17.2-93.4-27.9C357.4,562.551,347.001,530.75,340.301,500.75z M316.301,646.051c10,29.3,19.7,58.899,26.399,87   l-113.399-113.4C257.4,626.351,287,636.051,316.301,646.051z M107,623.351c11.5-6.2,24.5-10.101,39.3-11.8l204.6,204.6   c-1.7,14.7-5.6,27.7-11.8,39.3L107,623.351z" transform="matrix(-0.005880302749574184 -0.06615344434976578 0.06615344434976578 -0.005880302749574184 219.99923706054688 124.63883972167969)" id="L1_14"/></defs><g fi:class="KUsePattern"><pattern id="pattern_L1_0" width="350" height="350" patternUnits="userSpaceOnUse"><use xlink:href="#L1_0" x="-350" y="-350"/><use xlink:href="#L1_0" x="0" y="-350"/><use xlink:href="#L1_0" x="350" y="-350"/><use xlink:href="#L1_0" x="-350" y="0"/><use xlink:href="#L1_0" x="0" y="0"/><use xlink:href="#L1_0" x="350" y="0"/><use xlink:href="#L1_0" x="-350" y="350"/><use xlink:href="#L1_0" x="0" y="350"/><use xlink:href="#L1_0" x="350" y="350"/></pattern><rect x="0" y="0" width="100%" height="100%" fill="url(#pattern_L1_0)"/></g><g fi:class="KUsePattern"><pattern id="pattern_L1_2" width="350" height="350" patternUnits="userSpaceOnUse"><use xlink:href="#L1_2" x="-350" y="-350"/><use xlink:href="#L1_2" x="0" y="-350"/><use xlink:href="#L1_2" x="350" y="-350"/><use xlink:href="#L1_2" x="-350" y="0"/><use xlink:href="#L1_2" x="0" y="0"/><use xlink:href="#L1_2" x="350" y="0"/><use xlink:href="#L1_2" x="-350" y="350"/><use xlink:href="#L1_2" x="0" y="350"/><use xlink:href="#L1_2" x="350" y="350"/></pattern><rect x="0" y="0" width="100%" height="100%" fill="url(#pattern_L1_2)"/></g><g fi:class="KUsePattern"><pattern id="pattern_L1_4" width="350" height="350" patternUnits="userSpaceOnUse"><use xlink:href="#L1_4" x="-350" y="-350"/><use xlink:href="#L1_4" x="0" y="-350"/><use xlink:href="#L1_4" x="350" y="-350"/><use xlink:href="#L1_4" x="-350" y="0"/><use xlink:href="#L1_4" x="0" y="0"/><use xlink:href="#L1_4" x="350" y="0"/><use xlink:href="#L1_4" x="-350" y="350"/><use xlink:href="#L1_4" x="0" y="350"/><use xlink:href="#L1_4" x="350" y="350"/></pattern><rect x="0" y="0" width="100%" height="100%" fill="url(#pattern_L1_4)"/></g><g fi:class="KUsePattern"><pattern id="pattern_L1_6" width="350" height="350" patternUnits="userSpaceOnUse"><use xlink:href="#L1_6" x="-350" y="-350"/><use xlink:href="#L1_6" x="0" y="-350"/><use xlink:href="#L1_6" x="350" y="-350"/><use xlink:href="#L1_6" x="-350" y="0"/><use xlink:href="#L1_6" x="0" y="0"/><use xlink:href="#L1_6" x="350" y="0"/><use xlink:href="#L1_6" x="-350" y="350"/><use xlink:href="#L1_6" x="0" y="350"/><use xlink:href="#L1_6" x="350" y="350"/></pattern><rect x="0" y="0" width="100%" height="100%" fill="url(#pattern_L1_6)"/></g><g fi:class="KUsePattern"><pattern id="pattern_L1_10" width="350" height="350" patternUnits="userSpaceOnUse"><use xlink:href="#L1_10" x="-350" y="-350"/><use xlink:href="#L1_10" x="0" y="-350"/><use xlink:href="#L1_10" x="350" y="-350"/><use xlink:href="#L1_10" x="-350" y="0"/><use xlink:href="#L1_10" x="0" y="0"/><use xlink:href="#L1_10" x="350" y="0"/><use xlink:href="#L1_10" x="-350" y="350"/><use xlink:href="#L1_10" x="0" y="350"/><use xlink:href="#L1_10" x="350" y="350"/></pattern><rect x="0" y="0" width="100%" height="100%" fill="url(#pattern_L1_10)"/></g><g fi:class="KUsePattern"><pattern id="pattern_L1_11" width="350" height="350" patternUnits="userSpaceOnUse"><use xlink:href="#L1_11" x="-350" y="-350"/><use xlink:href="#L1_11" x="0" y="-350"/><use xlink:href="#L1_11" x="350" y="-350"/><use xlink:href="#L1_11" x="-350" y="0"/><use xlink:href="#L1_11" x="0" y="0"/><use xlink:href="#L1_11" x="350" y="0"/><use xlink:href="#L1_11" x="-350" y="350"/><use xlink:href="#L1_11" x="0" y="350"/><use xlink:href="#L1_11" x="350" y="350"/></pattern><rect x="0" y="0" width="100%" height="100%" fill="url(#pattern_L1_11)"/></g><g fi:class="KUsePattern"><pattern id="pattern_L1_14" width="350" height="350" patternUnits="userSpaceOnUse"><use xlink:href="#L1_14" x="-350" y="-350"/><use xlink:href="#L1_14" x="0" y="-350"/><use xlink:href="#L1_14" x="350" y="-350"/><use xlink:href="#L1_14" x="-350" y="0"/><use xlink:href="#L1_14" x="0" y="0"/><use xlink:href="#L1_14" x="350" y="0"/><use xlink:href="#L1_14" x="-350" y="350"/><use xlink:href="#L1_14" x="0" y="350"/><use xlink:href="#L1_14" x="350" y="350"/></pattern><rect x="0" y="0" width="100%" height="100%" fill="url(#pattern_L1_14)"/></g></svg>